<svg width="50" height="46" viewBox="0 0 50 46" fill="none" xmlns="http://www.w3.org/2000/svg">
<path d="M34.5846 14.4496C33.2756 14.4496 32.0045 14.6146 30.7902 14.9229C30.8119 15.2528 30.8254 15.5828 30.8254 15.9154C30.8254 23.1174 25.8843 29.1646 19.207 30.8548C19.7182 38.9033 26.4063 45.275 34.5873 45.275C42.7683 45.275 50 38.3732 50 29.8623C50 21.3514 43.0982 14.4469 34.5873 14.4469L34.5846 14.4496Z" fill="url(#paint0_linear_232_87)"/>
<g style="mix-blend-mode:overlay">
<path d="M39.0821 31.8718C39.0821 30.7332 38.3871 29.8623 37.262 29.6352C38.1978 29.3837 38.7927 28.6372 38.7927 27.715C38.7927 26.5386 37.8408 25.7299 36.2911 25.5271V23.6583H34.8496V25.4757H34.1303V23.6583H32.6888V25.4757H31.8423H30.0871V27.2823H31.296V32.5289H30.0871V34.3355H32.6888V36.0664H34.1303V34.3355H34.8496V36.0664H36.2911V34.3031C38.0139 34.13 39.0821 33.2294 39.0821 31.8718ZM36.4155 28.118C36.4155 28.6751 36.0234 29.0023 35.3797 29.0023H33.611V27.2823H35.3797C36.0234 27.2688 36.4155 27.5852 36.4155 28.1153V28.118ZM35.3797 32.5425H33.611V30.6845H35.3797C36.1883 30.671 36.6941 31.0253 36.6941 31.5824C36.6941 32.1882 36.1883 32.5425 35.3797 32.5425Z" fill="white"/>
</g>
<path d="M16.2457 39.747C13.2113 39.747 10.7448 37.2778 10.7448 34.2461C10.7448 34.2326 10.7421 34.2191 10.7421 34.2055H11.5832C12.0078 34.2055 12.2187 33.6917 11.9185 33.3915L10.5636 32.0366C10.377 31.85 10.0768 31.85 9.89019 32.0366L8.53526 33.3915C8.23506 33.6917 8.44871 34.2055 8.87061 34.2055H9.63056C9.63056 34.2055 9.62786 34.2326 9.62786 34.2461C9.62786 37.8944 12.5974 40.8639 16.2457 40.8639C16.554 40.8639 16.8028 40.6151 16.8028 40.3068C16.8028 39.9985 16.554 39.7497 16.2457 39.7497V39.747Z" fill="url(#paint1_linear_232_87)"/>
<path d="M30.3223 4.61352C33.3567 4.61352 35.8232 7.08269 35.8232 10.1144C35.8232 10.1279 35.8259 10.1414 35.8259 10.155H34.9848C34.5602 10.155 34.3493 10.6688 34.6494 10.969L36.0044 12.3239C36.191 12.5105 36.4912 12.5105 36.6778 12.3239L38.0327 10.969C38.3329 10.6688 38.1193 10.155 37.6974 10.155H36.9374C36.9374 10.155 36.9401 10.1279 36.9401 10.1144C36.9401 6.46607 33.9706 3.49658 30.3223 3.49658C30.014 3.49658 29.7652 3.74539 29.7652 4.0537C29.7652 4.36201 30.014 4.61082 30.3223 4.61082V4.61352Z" fill="url(#paint2_linear_232_87)"/>
<path style="mix-blend-mode:overlay" d="M28.6591 8.73518C26.1088 4.04024 21.1326 0.851685 15.4154 0.851685C7.09375 0.851685 0.354248 7.5966 0.354248 15.9128C0.354248 24.229 7.09646 30.9739 15.4154 30.9739C15.675 30.9739 15.9346 30.9685 16.1915 30.955C16.3051 30.9496 16.416 30.9388 16.5269 30.9307C16.6702 30.9198 16.8136 30.9117 16.9542 30.8982C24.5483 30.1274 30.4765 23.7125 30.4765 15.9128C30.4765 13.3138 29.8166 10.8663 28.6591 8.73247V8.73518Z" fill="url(#paint3_linear_232_87)"/>
<path d="M15.9562 20.4453V22.5574H14.1199V20.4317C12.8218 20.2532 11.5669 19.715 10.642 18.9551L11.621 16.9808C12.6135 17.8354 14.1199 18.444 15.126 18.444C15.8724 18.444 16.3403 18.1681 16.3403 17.657C16.3403 16.0154 11.2478 17.0079 11.2478 13.584C11.2478 12.0533 12.3512 10.9905 14.1199 10.6984V8.67004H15.9562V10.6849C17.0894 10.8093 18.1658 11.196 18.9798 11.7207L18.0278 13.722C17.0056 13.1432 15.7101 12.6862 14.9096 12.6862C14.3011 12.6862 13.9008 12.9079 13.9008 13.3488C13.9008 14.9498 18.9933 14.0384 18.9933 17.5163C18.9933 19.2147 17.6952 20.2073 15.9562 20.4425V20.4453Z" fill="url(#paint4_linear_232_87)"/>
<path d="M15.4154 0.5C6.90177 0.5 0 7.40177 0 15.9154C0 24.429 6.90177 31.3281 15.4154 31.3281C23.929 31.3281 30.8281 24.4263 30.8281 15.9154C30.8281 7.40448 23.9263 0.5 15.4154 0.5ZM16.9542 30.8981C16.8136 30.9116 16.6676 30.9197 16.5269 30.9306C16.4161 30.9387 16.3025 30.9495 16.1916 30.9549C15.9347 30.9684 15.675 30.9738 15.4154 30.9738C7.09649 30.9738 0.354284 24.2289 0.354284 15.9127C0.354284 7.59649 7.09379 0.85158 15.4127 0.85158C21.1326 0.85158 26.1061 4.04013 28.6564 8.73507C29.8166 10.8689 30.4738 13.3164 30.4738 15.9154C30.4738 23.7124 24.5456 30.1273 16.9515 30.9008L16.9542 30.8981Z" fill="white"/>
<path d="M15.4154 0.5C6.90177 0.5 0 7.40177 0 15.9154C0 24.429 6.90177 31.3281 15.4154 31.3281C23.929 31.3281 30.8281 24.4263 30.8281 15.9154C30.8281 7.40448 23.9263 0.5 15.4154 0.5ZM16.9542 30.8981C16.8136 30.9116 16.6676 30.9197 16.5269 30.9306C16.4161 30.9387 16.3025 30.9495 16.1916 30.9549C15.9347 30.9684 15.675 30.9738 15.4154 30.9738C7.09649 30.9738 0.354284 24.2289 0.354284 15.9127C0.354284 7.59649 7.09379 0.85158 15.4127 0.85158C21.1326 0.85158 26.1061 4.04013 28.6564 8.73507C29.8166 10.8689 30.4738 13.3164 30.4738 15.9154C30.4738 23.7124 24.5456 30.1273 16.9515 30.9008L16.9542 30.8981Z" fill="white"/>
<path style="mix-blend-mode:overlay" d="M0.351562 15.9152C0.351562 7.59634 7.09377 0.854126 15.4127 0.854126C7.09377 0.854126 0.351562 7.59904 0.351562 15.9152C0.351562 24.2315 7.09648 30.9764 15.4127 30.9764C15.6723 30.9764 15.9319 30.971 16.1889 30.9574C15.9319 30.971 15.675 30.9764 15.4127 30.9764C7.09107 30.9764 0.351562 24.2315 0.351562 15.9152Z" fill="url(#paint5_linear_232_87)"/>
<path style="mix-blend-mode:overlay" d="M0.351562 15.9152C0.351562 7.59634 7.09377 0.854126 15.4127 0.854126C7.09377 0.854126 0.351562 7.59904 0.351562 15.9152C0.351562 24.2315 7.09648 30.9764 15.4127 30.9764C15.6723 30.9764 15.9319 30.971 16.1889 30.9574C15.9319 30.971 15.675 30.9764 15.4127 30.9764C7.09107 30.9764 0.351562 24.2315 0.351562 15.9152Z" fill="url(#paint6_linear_232_87)"/>
<path style="mix-blend-mode:overlay" d="M0.351562 15.9152C0.351562 7.59634 7.09377 0.854126 15.4127 0.854126C7.09377 0.854126 0.351562 7.59904 0.351562 15.9152C0.351562 24.2315 7.09648 30.9764 15.4127 30.9764C15.6723 30.9764 15.9319 30.971 16.1889 30.9574C15.9319 30.971 15.675 30.9764 15.4127 30.9764C7.09107 30.9764 0.351562 24.2315 0.351562 15.9152Z" fill="url(#paint7_linear_232_87)"/>
<defs>
<linearGradient id="paint0_linear_232_87" x1="28.2886" y1="23.5663" x2="42.771" y2="38.0487" gradientUnits="userSpaceOnUse">
<stop stop-color="#5625CA"/>
<stop offset="0.47" stop-color="#3F8DE5"/>
<stop offset="1" stop-color="#11EFC4"/>
</linearGradient>
<linearGradient id="paint1_linear_232_87" x1="8.39463" y1="36.3826" x2="16.8028" y2="36.3826" gradientUnits="userSpaceOnUse">
<stop stop-color="#5625CA"/>
<stop offset="0.47" stop-color="#3F8DE5"/>
<stop offset="1" stop-color="#11EFC4"/>
</linearGradient>
<linearGradient id="paint2_linear_232_87" x1="38.1707" y1="7.98057" x2="29.7652" y2="7.98057" gradientUnits="userSpaceOnUse">
<stop stop-color="#5625CA"/>
<stop offset="0.47" stop-color="#3F8DE5"/>
<stop offset="1" stop-color="#11EFC4"/>
</linearGradient>
<linearGradient id="paint3_linear_232_87" x1="23.2258" y1="23.726" x2="5.53328" y2="6.03343" gradientUnits="userSpaceOnUse">
<stop stop-color="white" stop-opacity="0"/>
<stop offset="1" stop-color="white"/>
</linearGradient>
<linearGradient id="paint4_linear_232_87" x1="8.37022" y1="8.9486" x2="23.499" y2="24.0746" gradientUnits="userSpaceOnUse">
<stop stop-color="#5625CA"/>
<stop offset="0.47" stop-color="#3F8DE5"/>
<stop offset="1" stop-color="#11EFC4"/>
</linearGradient>
<linearGradient id="paint5_linear_232_87" x1="23.8479" y1="24.3477" x2="3.69427" y2="4.19413" gradientUnits="userSpaceOnUse">
<stop stop-color="white" stop-opacity="0"/>
<stop offset="1" stop-color="white"/>
</linearGradient>
<linearGradient id="paint6_linear_232_87" x1="24.0805" y1="24.5803" x2="3.37244" y2="3.8723" gradientUnits="userSpaceOnUse">
<stop stop-color="white" stop-opacity="0"/>
<stop offset="1" stop-color="white"/>
</linearGradient>
<linearGradient id="paint7_linear_232_87" x1="23.6559" y1="24.1557" x2="3.96201" y2="4.46188" gradientUnits="userSpaceOnUse">
<stop stop-color="white" stop-opacity="0"/>
<stop offset="1" stop-color="white"/>
</linearGradient>
</defs>
</svg>
